Coordinates
version=1
nRows=10
nColumns=63
inDegrees=yes

Units are S.I. units (second, meters, Newtons, ...)
If the header above contains a line with 'inDegrees', this indicates whether rotational values are in degrees (yes) or radians (no).

endheader
time	pelvis_tilt	pelvis_list	pelvis_rotation	pelvis_tx	pelvis_ty	pelvis_tz	hip_flexion_r	hip_adduction_r	hip_rotation_r	knee_angle_r	knee_angle_r_beta	ankle_angle_r	subtalar_angle_r	mtp_angle_r	hip_flexion_l	hip_adduction_l	hip_rotation_l	knee_angle_l	knee_angle_l_beta	ankle_angle_l	subtalar_angle_l	mtp_angle_l	L5_S1_Flex_Ext	L5_S1_Lat_Bending	L5_S1_axial_rotation	L4_L5_Flex_Ext	L4_L5_Lat_Bending	L4_L5_axial_rotation	L3_L4_Flex_Ext	L3_L4_Lat_Bending	L3_L4_axial_rotation	L2_L3_Flex_Ext	L2_L3_Lat_Bending	L2_L3_axial_rotation	L1_L2_Flex_Ext	L1_L2_Lat_Bending	L1_L2_axial_rotation	L1_T12_Flex_Ext	L1_T12_Lat_Bending	L1_T12_axial_rotation	Abs_r3	Abs_r2	Abs_r1	Abs_t1	Abs_t2	neck_flexion	neck_bending	neck_rotation	arm_flex_r	arm_add_r	arm_rot_r	elbow_flex_r	pro_sup_r	wrist_flex_r	wrist_dev_r	arm_flex_l	arm_add_l	arm_rot_l	elbow_flex_l	pro_sup_l	wrist_flex_l	wrist_dev_l
     12.77500000	    -43.88690025	     -2.66490436	     -1.17912083	     -0.24420552	      1.03731943	     -0.01825958	     81.31049964	     -5.31601576	     -4.72564267	     70.90938636	      1.23760226	     -0.17008854	     -2.44862842	      0.00000000	    117.66363012	     -8.57506213	      0.37690913	     98.68521021	      1.72238184	     25.95176524	      9.71847101	      0.00000000	     -0.04766039	      0.43039661	     -0.30625754	     -0.08851010	      0.57242749	     -0.32539864	     -0.07830125	      1.04646632	     -0.32539864	     -0.05447105	      1.04646632	     -0.26797535	     -0.04425743	      0.87766477	     -0.24883425	     -0.02723314	      0.66668435	     -0.22969316	     -0.34043336	      4.86873255	     -1.70331256	      0.00000000	      0.00000000	     -0.00000000	      0.00000000	      0.00000000	     78.99240857	    -11.15559248	     37.94285540	     24.65688619	     41.72231734	      0.00000000	      5.00000014	     75.50816929	     -8.46933718	     23.56845591	     30.83056132	     47.59895120	      0.00000000	      5.00000014
     12.78300000	    -43.91772974	     -2.64775210	     -1.47826666	     -0.24398863	      1.03756481	     -0.01813779	     82.01460360	     -5.27218393	     -4.54462584	     72.97601867	      1.27367180	      0.00597682	     -1.92506413	      0.00000000	    116.76160457	     -8.63191412	      0.54010413	     96.76279792	      1.68882942	     26.42371600	     10.01421181	      0.00000000	     -0.04684789	      0.43414641	     -0.25430573	     -0.08700122	      0.57741473	     -0.27019984	     -0.07696640	      1.05558358	     -0.27019984	     -0.05354245	      1.05558358	     -0.22251751	     -0.04350295	      0.88531136	     -0.20662340	     -0.02676888	      0.67249279	     -0.19072930	     -0.33462979	      4.91115102	     -1.41437217	      0.00000000	      0.00000000	     -0.00000000	      0.00000000	      0.00000000	     78.99826374	    -11.05825657	     37.95160289	     24.62356282	     41.68890757	      0.00000000	      5.00000014	     75.50377758	     -8.45926836	     23.58045256	     30.76146223	     47.61970028	      0.00000000	      5.00000014
     12.79200000	    -43.96324305	     -2.81495588	     -2.00196658	     -0.24380233	      1.03779718	     -0.01782585	     82.67018958	     -4.93188473	     -4.57534443	     74.89126938	      1.30709923	      0.23209860	     -1.87725292	      0.00000000	    115.93316633	     -8.80836315	      1.00781797	     94.86820107	      1.65576246	     26.31552705	     10.01537712	      0.00000000	     -0.04921269	      0.46479595	     -0.16105122	     -0.09139288	      0.61817861	     -0.17111692	     -0.08085152	      1.13010487	     -0.17111692	     -0.05624518	      1.13010487	     -0.14091982	     -0.04569890	      0.94781190	     -0.13085412	     -0.02812013	      0.71996892	     -0.12078842	     -0.35152130	      5.25786472	     -0.89571858	      0.00000000	      0.00000000	     -0.00000000	      0.00000000	      0.00000000	     79.09532525	    -11.01046201	     37.93881012	     24.64380530	     41.67902609	      0.00000000	      5.00000014	     75.46985634	     -8.45968318	     23.55494150	     30.79570717	     47.61866554	      0.00000000	      5.00000014
     12.80000000	    -43.97633604	     -2.76586485	     -2.19172147	     -0.24331446	      1.03788366	     -0.01795836	     83.46369854	     -4.96059745	     -4.26955170	     77.05148748	      1.34480215	      0.13918458	     -1.53969471	      0.00000000	    114.81780172	     -8.61874399	      1.24859872	     92.83501005	      1.62027659	     26.97816303	     10.02035864	      0.00000000	     -0.04140403	      0.46736232	     -0.11742342	     -0.07689142	      0.62159188	     -0.12476238	     -0.06802267	      1.13634473	     -0.12476238	     -0.04732066	      1.13634473	     -0.10274549	     -0.03844778	      0.95304523	     -0.09540653	     -0.02365826	      0.72394423	     -0.08806756	     -0.29574482	      5.28689598	     -0.65307383	      0.00000000	      0.00000000	     -0.00000000	      0.00000000	      0.00000000	     79.02463254	    -11.01413402	     37.95332621	     24.61377452	     41.66662339	      0.00000000	      5.00000014	     75.33476831	     -8.37633775	     23.45475466	     30.75865081	     47.60637051	      0.00000000	      5.00000014
     12.80800000	    -43.93463368	     -2.50742469	     -2.26100112	     -0.24287826	      1.03820693	     -0.01805218	     84.23060692	     -5.18606312	     -3.87537017	     79.11558240	      1.38082740	      0.09349027	     -1.09417969	      0.00000000	    113.42868932	     -8.47200060	      1.12118433	     90.57102474	      1.58076259	     27.71070487	     10.18374050	      0.00000000	     -0.04871058	      0.44150003	     -0.11454336	     -0.09046043	      0.58719504	     -0.12170232	     -0.08002662	      1.07346318	     -0.12170232	     -0.05567133	      1.07346318	     -0.10022544	     -0.04523265	      0.90030686	     -0.09306648	     -0.02783323	      0.68388355	     -0.08590752	     -0.34793483	      4.99433666	     -0.63705580	      0.00000000	      0.00000000	     -0.00000000	      0.00000000	      0.00000000	     78.96153017	    -10.91080738	     37.97719189	     24.69563330	     41.64588146	      0.00000000	      5.00000014	     75.28901625	     -8.41693648	     23.18900097	     30.71717175	     47.57056297	      0.00000000	      5.00000014
     12.81700000	    -43.94013709	     -2.33604709	     -2.46238300	     -0.24244848	      1.03838012	     -0.01795887	     85.03309768	     -5.19593992	     -3.49984655	     81.13392674	      1.41605416	      0.24956492	     -0.86032469	      0.00000000	    112.14359721	     -8.43730459	      1.10119055	     88.38950025	      1.54268780	     27.94777304	     10.29626213	      0.00000000	     -0.04796943	      0.42724286	     -0.08073290	     -0.08908403	      0.56823300	     -0.08577870	     -0.07880898	      1.03879828	     -0.08577870	     -0.05482426	      1.03879828	     -0.07064128	     -0.04454441	      0.87123364	     -0.06559548	     -0.02740973	      0.66179919	     -0.06054967	     -0.34264085	      4.83305665	     -0.44901215	      0.00000000	      0.00000000	     -0.00000000	      0.00000000	      0.00000000	     78.89473699	    -10.87462172	     37.95510313	     24.77914347	     41.61280910	      0.00000000	      5.00000014	     75.19811264	     -8.42860483	     22.92393121	     30.77670965	     47.53390969	      0.00000000	      5.00000014
     12.82500000	    -43.93726610	     -2.23532817	     -2.75108377	     -0.24201750	      1.03852638	     -0.01785599	     85.84140045	     -5.08896333	     -3.19704897	     83.13008520	      1.45089369	      0.39081292	     -0.78593528	      0.00000000	    110.84736739	     -8.46833965	      1.10819918	     86.23117794	      1.50501797	     27.85114906	     10.32236961	      0.00000000	     -0.04853091	      0.42497229	     -0.02900896	     -0.09012675	      0.56521314	     -0.03082202	     -0.07973143	      1.03327762	     -0.03082202	     -0.05546597	      1.03327762	     -0.02538284	     -0.04506580	      0.86660349	     -0.02356978	     -0.02773056	      0.65828208	     -0.02175672	     -0.34665142	      4.80737153	     -0.16133914	      0.00000000	      0.00000000	     -0.00000000	      0.00000000	      0.00000000	     78.83952158	    -10.87507955	     37.91802769	     24.87955700	     41.58134321	      0.00000000	      5.00000014	     75.07227804	     -8.42110637	     22.70897582	     30.85851328	     47.50320668	      0.00000000	      5.00000014
     12.83300000	    -43.91845889	     -1.90653775	     -2.85717354	     -0.24155926	      1.03863867	     -0.01769760	     86.75392374	     -5.18802898	     -2.67453098	     85.23696733	      1.48766572	      0.47002692	     -0.75354024	      0.00000000	    109.39866502	     -8.48543747	      0.62212309	     84.00417807	      1.46614949	     27.56851891	     10.32898597	      0.00000000	     -0.04748543	      0.38986331	     -0.01519485	     -0.08818519	      0.51851820	     -0.01614452	     -0.07801381	      0.94791365	     -0.01614452	     -0.05427110	      0.94791365	     -0.01329549	     -0.04409497	      0.79500926	     -0.01234581	     -0.02713317	      0.60389826	     -0.01139613	     -0.33918367	      4.41021171	     -0.08450917	      0.00000000	      0.00000000	     -0.00000000	      0.00000000	      0.00000000	     78.67894119	    -10.84097233	     37.82358295	     25.08359561	     41.51974782	      0.00000000	      5.00000014	     74.95643106	     -8.46338591	     22.35858773	     30.94813158	     47.45430235	      0.00000000	      5.00000014
     12.84200000	    -43.91955616	     -2.04874954	     -3.36071769	     -0.24115666	      1.03868562	     -0.01736591	     87.55969901	     -4.79511617	     -2.59398214	     87.18619372	      1.52168614	      0.70585207	     -0.85063892	      0.00000000	    108.16464021	     -8.75937671	      0.69570006	     82.01075079	      1.43135762	     26.76045276	     10.37664255	      0.00000000	     -0.04812218	      0.42249371	      0.08064487	     -0.08936770	      0.56191664	      0.08568517	     -0.07905993	      1.02725121	      0.08568517	     -0.05499884	      1.02725121	      0.07056426	     -0.04468626	      0.86154918	      0.06552395	     -0.02749701	      0.65444276	      0.06048365	     -0.34373193	      4.77933338	      0.44852255	      0.00000000	      0.00000000	     -0.00000000	      0.00000000	      0.00000000	     78.68846522	    -10.88375110	     37.77111773	     25.15300930	     41.49864744	      0.00000000	      5.00000014	     74.80146505	     -8.44940065	     22.30157634	     31.02460640	     47.44641700	      0.00000000	      5.00000014
     12.85000000	    -43.87589681	     -1.46339359	     -3.26038327	     -0.24077064	      1.03882037	     -0.01711397	     88.61410672	     -5.05416055	     -1.75943480	     89.39107981	      1.56016866	      0.68463225	     -0.98359214	      0.00000000	    106.55958083	     -8.71429655	     -0.36430583	     79.72049174	      1.39138506	     25.51754167	     10.06189608	      0.00000000	     -0.04632899	      0.34859061	      0.06289461	     -0.08603757	      0.46362551	      0.06682552	     -0.07611390	      0.84756320	      0.06682552	     -0.05294941	      0.84756320	      0.05503278	     -0.04302110	      0.71084596	      0.05110187	     -0.02647239	      0.53996685	      0.04717096	     -0.33092337	      3.94332666	      0.34980094	      0.00000000	      0.00000000	     -0.00000000	      0.00000000	      0.00000000	     78.37622966	    -10.87204920	     37.53102581	     25.50697479	     41.39754753	      0.00000000	      5.00000014	     74.73310299	     -8.48836245	     22.00281785	     31.15786530	     47.40690060	      0.00000000	      5.00000014
